<svg width="16" height="14" viewBox="0 0 16 14" fill="none" xmlns="http://www.w3.org/2000/svg">
<path d="M0.5 4.29999C0.499908 3.76177 0.607097 3.22893 0.815302 2.7326C1.02351 2.23628 1.32855 1.78644 1.71261 1.40936C2.09667 1.03229 2.55203 0.735549 3.05209 0.536485C3.55215 0.33742 4.08687 0.240026 4.625 0.249993C5.26172 0.246611 5.89189 0.378595 6.47374 0.637196C7.05559 0.895796 7.57584 1.27511 8 1.74999C8.42416 1.27511 8.94441 0.895796 9.52626 0.637196C10.1081 0.378595 10.7383 0.246611 11.375 0.249993C11.9131 0.240026 12.4479 0.33742 12.9479 0.536485C13.448 0.735549 13.9033 1.03229 14.2874 1.40936C14.6714 1.78644 14.9765 2.23628 15.1847 2.7326C15.3929 3.22893 15.5001 3.76177 15.5 4.29999C15.5 8.31699 10.7157 11.35 8 13.75C5.29025 11.3297 0.5 8.31999 0.5 4.29999Z" fill="black"/>
</svg>
